HIERARCHY
ROOT hip
{
	OFFSET	0.00  0.00  0.00 
	CHANNELS 6 Xposition Yposition Zposition Xrotation Zrotation Yrotation
	JOINT abdomen
	{
		OFFSET	0.000000 0.000000 0.000000
		CHANNELS 3 Xrotation Zrotation Yrotation
		JOINT chest
		{
			OFFSET	0.000000 5.018152 -1.882228
			CHANNELS 3 Xrotation Zrotation Yrotation
			JOINT neckDummy
			{
				OFFSET	0.000000 8.316447 0.784897
				CHANNELS 3 Xrotation Yrotation Zrotation
				JOINT neck
				{
					OFFSET	0.000000 2.280413 -0.392801
					CHANNELS 3 Xrotation Zrotation Yrotation
					JOINT head
					{
						OFFSET	0.000000 3.496879 0.529469
						CHANNELS 3 Xrotation Zrotation Yrotation
						JOINT figureHair
						{
							OFFSET	0.000000 4.699570 0.720622
							CHANNELS 3 Zrotation Yrotation Xrotation
							End Site
							{
								OFFSET 0.000000 -6.419331 0.000000
							}
						}
					}
				}
			}
			JOINT lCollar
			{
				OFFSET	0.599237 8.316447 0.784897
				CHANNELS 3 Yrotation Zrotation Xrotation
				JOINT lShldr
				{
					OFFSET	6.421198 0.010146 -0.332128
					CHANNELS 3 Zrotation Yrotation Xrotation
					JOINT lForeArm
					{
						OFFSET	10.552783 0.025574 0.125508
						CHANNELS 3 Yrotation Zrotation Xrotation
						JOINT lHand
						{
							OFFSET	11.035963 0.319619 0.041520
							CHANNELS 3 Zrotation Yrotation Xrotation
							End Site
							{
								OFFSET 10.353753 0.000000 0.000000
							}
						}
					}
				}
			}
			JOINT rCollar
			{
				OFFSET	-0.599237 8.316447 0.784897
				CHANNELS 3 Yrotation Zrotation Xrotation
				JOINT rShldr
				{
					OFFSET	-6.421198 0.010146 -0.332128
					CHANNELS 3 Zrotation Yrotation Xrotation
					JOINT rForeArm
					{
						OFFSET	-10.552783 0.025574 0.125508
						CHANNELS 3 Yrotation Zrotation Xrotation
						JOINT rHand
						{
							OFFSET	-11.035963 0.319619 0.041520
							CHANNELS 3 Zrotation Yrotation Xrotation
							End Site
							{
								OFFSET -10.353753 0.000000 0.000000
							}
						}
					}
				}
			}
		}
	}
	JOINT lThigh
	{
		OFFSET	4.500466 -6.400484 -1.832696
		CHANNELS 3 Xrotation Zrotation Yrotation
		JOINT lShin
		{
			OFFSET	-1.359117 -18.918689 1.179887
			CHANNELS 3 Xrotation Zrotation Yrotation
			JOINT lFoot
			{
				OFFSET	-0.652380 -17.215186 -0.312137
				CHANNELS 3 Xrotation Yrotation Zrotation
				End Site
				{
					OFFSET 0.000000 0.000000 10.353752
				}
			}
		}
	}
	JOINT rThigh
	{
		OFFSET	-4.500466 -6.400484 -1.832696
		CHANNELS 3 Xrotation Zrotation Yrotation
		JOINT rShin
		{
			OFFSET	1.359117 -18.918689 1.179887
			CHANNELS 3 Xrotation Zrotation Yrotation
			JOINT rFoot
			{
				OFFSET	0.652380 -17.215186 -0.312137
				CHANNELS 3 Xrotation Yrotation Zrotation
				End Site
				{
					OFFSET 0.000000 0.000000 10.353752
				}
			}
		}
	}
}
MOTION
Frames:     15
Frame Time: 0.066667
17.090010 42.879997 2.139996 8.447270 -1.474610 -168.154007 15.078100 6.435550 8.428830 0.000000 0.000000 0.000000 0.000000 0.000000 0.000000 -4.345700 -1.542970 -16.416000 0.000000 0.000000 0.000000 0.000000 0.000000 0.000000 0.000000 0.000000 0.000000 -60.388802 4.817450 77.349998 -59.934200 34.715599 15.295800 3.508690 -15.464800 -20.914101 0.000000 0.000000 0.000000 68.100197 -21.235399 68.397102 16.783600 -13.169000 -3.527340 -15.148300 1.143870 -20.931601 -10.802579 5.004980 6.179049 52.466015 10.943275 -6.491825 -4.506968 -4.076515 -10.599564 -3.456207 -8.307318 -9.755842 27.547377 -1.904180 3.355360 0.036395 2.030937 7.352773 
17.380018 42.039997 1.839996 -171.865005 -174.033005 4.003910 17.402300 0.361328 -4.033200 0.000000 0.000000 0.000000 0.000000 0.000000 0.000000 -4.326170 1.103520 2.871280 0.000000 0.000000 0.000000 0.000000 0.000000 0.000000 0.000000 0.000000 0.000000 -60.863602 5.843250 72.453201 -38.815201 25.824900 5.115630 13.930900 -18.176800 -25.676701 0.000000 0.000000 0.000000 60.067699 -18.142200 68.150803 40.892899 -24.944700 16.212601 0.493287 8.923470 -15.632300 1.082327 -0.449737 10.233101 37.647583 4.825700 -3.344795 -3.088311 -2.580088 -6.700315 -26.273386 -15.084367 -3.524599 54.378620 -3.164890 6.784997 8.447298 -3.042121 6.289639 
17.880001 40.000000 11.760040 -170.811005 -170.703003 -2.286730 14.209000 -4.257810 -15.312500 0.000000 0.000000 0.000000 0.000000 0.000000 0.000000 -1.962890 1.962890 17.490200 0.000000 0.000000 0.000000 0.000000 0.000000 0.000000 0.000000 0.000000 0.000000 -58.491001 12.054000 76.551598 -23.201700 18.794300 -4.960700 12.879900 -17.700800 -24.699699 0.000000 0.000000 0.000000 49.968601 -17.961700 57.258999 75.563904 -24.578699 41.133598 9.481330 11.816000 -12.054500 15.882613 -6.812101 10.870230 16.315073 0.242787 -2.384297 -11.204700 1.678504 -3.487753 -33.521347 -14.842290 -1.025082 43.398342 -3.587002 7.351369 -4.425792 -4.863565 4.362884 
19.839968 38.639992 20.350033 -171.688995 -171.063995 -5.703130 11.406300 -1.601560 -16.933901 0.000000 0.000000 0.000000 0.000000 0.000000 0.000000 -2.753910 -0.888672 22.128901 0.000000 0.000000 0.000000 0.000000 0.000000 0.000000 0.000000 0.000000 0.000000 -58.088501 13.441300 82.804604 -18.331699 14.930600 -5.448090 9.775840 -19.173401 -19.727200 0.000000 0.000000 0.000000 45.336601 -15.417500 46.284901 93.716103 -21.817499 49.174599 12.458000 13.478600 -11.470600 20.660713 -8.698915 7.707366 8.818065 -2.107969 -2.369820 -15.928544 6.568542 -0.164090 -28.406656 -9.306356 8.161585 13.567389 -1.368593 2.543691 -11.185522 -1.675298 10.431636 
19.409975 39.729996 19.700024 -171.376999 -172.334000 -7.880860 10.273400 1.591800 -14.882500 0.000000 0.000000 0.000000 0.000000 0.000000 0.000000 -4.062500 -2.812500 22.362801 0.000000 0.000000 0.000000 0.000000 0.000000 0.000000 0.000000 0.000000 0.000000 -59.323002 15.077700 86.891502 -15.446700 12.535400 -4.657620 8.004120 -19.976400 -17.429399 0.000000 0.000000 0.000000 45.232300 -9.809900 44.518902 100.837997 -24.365601 53.559101 15.609100 16.307501 -14.166600 20.944698 -9.617256 6.728918 10.815994 -1.728983 -2.804576 -18.955807 10.090538 1.473854 -25.302757 -8.357770 8.181053 6.507651 -1.249438 5.296657 -10.219399 -0.846492 14.875465 
19.350025 40.389996 19.859989 -169.697006 -174.169998 -7.744140 11.093700 7.998050 -10.244100 0.000000 0.000000 0.000000 0.000000 0.000000 0.000000 -6.708980 -5.644530 17.099600 0.000000 0.000000 0.000000 0.000000 0.000000 0.000000 0.000000 0.000000 0.000000 -64.577797 18.752800 89.234497 -17.872700 16.094101 -4.459830 7.269420 -20.112801 -23.846100 0.000000 0.000000 0.000000 49.441700 -4.585210 40.976101 95.865402 -30.072201 51.483398 12.641400 21.368099 -22.481800 20.573076 -8.044894 8.657049 14.394849 -0.450755 -3.315709 -18.769302 8.563680 -0.282680 -23.044861 -7.196658 4.954734 6.995379 -2.000025 10.151738 -8.453364 -1.710503 19.385300 
19.900019 40.949997 21.240040 -167.313995 -173.828003 5.664060 14.316400 14.355500 -6.503910 0.000000 0.000000 0.000000 0.000000 0.000000 0.000000 -8.466800 -5.742190 -2.530270 0.000000 0.000000 0.000000 0.000000 0.000000 0.000000 0.000000 0.000000 0.000000 -70.587700 19.021099 86.785698 -29.260201 24.878000 -4.836480 10.345800 -17.533600 -35.446701 0.000000 0.000000 0.000000 61.643002 -3.369940 30.813299 73.563202 -40.930500 29.731400 -7.762360 13.516500 -44.294998 13.432090 -0.799583 7.358023 27.582943 2.622342 -7.738182 -17.500313 1.781343 -5.936673 -21.158800 -10.281714 0.974992 9.019044 -2.118789 11.393045 -10.351621 1.282757 22.293818 
19.529976 40.449993 21.649946 8.095700 -7.353520 -143.722000 17.021500 18.466801 -3.024250 0.000000 0.000000 0.000000 0.000000 0.000000 0.000000 9.267580 1.542970 -23.144400 0.000000 0.000000 0.000000 0.000000 0.000000 0.000000 0.000000 0.000000 0.000000 -74.274597 16.629299 78.535400 -45.555500 34.022400 4.377520 10.813000 -15.795000 -34.430901 0.000000 0.000000 0.000000 70.675102 -2.933330 32.233601 28.353800 -37.921001 -15.044400 -25.831200 -13.267900 -64.712997 -5.132769 5.074363 -0.463729 43.053078 7.085481 -12.399365 -10.324742 -1.618063 -13.212383 -18.508942 -15.872561 -3.920631 11.388379 -2.535546 11.186733 -14.416808 6.938635 26.278137 
18.309992 39.859997 22.510033 1.230470 -7.001950 -120.470001 14.902300 16.015600 0.442148 0.000000 0.000000 0.000000 0.000000 0.000000 0.000000 30.771500 5.546880 -11.377000 0.000000 0.000000 0.000000 0.000000 0.000000 0.000000 0.000000 0.000000 0.000000 -76.306999 20.129499 69.773102 -53.085701 35.635201 13.231800 9.422050 -15.943500 -31.199100 0.000000 0.000000 0.000000 75.261597 -11.600100 36.810101 17.074900 -27.040100 -16.782700 -23.284000 -9.040700 -51.607601 -14.786193 3.874169 3.747204 43.810635 8.668754 -8.621636 -7.515090 -3.716141 -14.071894 -15.942392 -19.583586 -1.723365 15.140765 -3.298366 10.949068 -17.466827 7.379070 26.915087 
18.030027 40.649998 23.859955 -4.462890 -8.203130 -106.191002 12.529300 5.937500 5.577180 0.000000 0.000000 0.000000 0.000000 0.000000 0.000000 28.281200 -1.708980 4.873050 0.000000 0.000000 0.000000 0.000000 0.000000 0.000000 0.000000 0.000000 0.000000 -74.320099 25.158100 61.654400 -56.492699 37.479000 14.919000 4.421650 -14.307800 -32.088699 0.000000 0.000000 0.000000 83.034103 -14.623900 42.122700 13.745300 -18.570700 -18.121500 -15.351300 -5.396700 -45.799900 -10.433059 -0.879242 7.184401 31.929939 6.105549 -4.611268 -9.539608 -9.156364 -9.455664 -14.070617 -22.791071 2.547627 21.222574 -4.476188 17.009943 -20.815128 10.099181 26.985363 
18.440035 41.719997 23.760042 -10.869100 -7.363280 -92.393799 7.978520 -7.451170 6.679690 0.000000 0.000000 0.000000 0.000000 0.000000 0.000000 7.500000 -3.847660 4.277340 0.000000 0.000000 0.000000 0.000000 0.000000 0.000000 0.000000 0.000000 0.000000 -65.312202 29.655100 56.806000 -67.067398 38.058800 16.358500 -3.478480 -13.045400 -26.000799 0.000000 0.000000 0.000000 87.310799 -15.514900 49.603298 13.261300 -12.900800 -10.622800 -7.682700 -1.282400 -39.867100 -4.487059 -5.317375 4.576788 15.522643 3.501428 -6.510497 -2.427273 -14.628587 -9.587519 -9.822328 -26.178997 5.338593 23.979956 -4.351962 19.558662 -20.425797 6.776354 24.551395 
18.650009 42.179996 23.459990 -11.884800 -6.689450 -86.933601 3.525390 -12.148400 7.861330 0.000000 0.000000 0.000000 0.000000 0.000000 0.000000 2.656250 -2.939450 0.605469 0.000000 0.000000 0.000000 0.000000 0.000000 0.000000 0.000000 0.000000 0.000000 -64.205399 33.272999 51.164001 -71.602997 36.808899 14.648900 -6.821720 -10.890800 -21.536400 0.000000 0.000000 0.000000 83.319298 -17.215200 56.774200 15.398800 -12.180400 -0.030352 -5.457120 2.490590 -34.197601 -0.849191 -5.093424 -0.140929 6.906803 1.782884 -6.926176 2.185658 -15.396351 -10.026108 -6.512186 -27.689774 -0.307416 23.188038 -4.161271 19.917360 -19.777027 6.351612 23.841988 
18.709957 42.519997 23.200006 -10.888700 -8.583980 -85.664101 4.218750 -12.431600 7.429540 0.000000 0.000000 0.000000 0.000000 0.000000 0.000000 2.998050 -2.041020 -0.625000 0.000000 0.000000 0.000000 0.000000 0.000000 0.000000 0.000000 0.000000 0.000000 -65.237297 33.090500 51.247101 -70.429604 37.670799 11.304000 -7.870810 -9.168730 -22.077400 0.000000 0.000000 0.000000 81.426201 -15.549600 55.362499 17.660200 -13.327500 -1.193960 -6.976100 2.163560 -32.841599 2.261423 -3.002416 -1.624553 4.467920 0.925697 -7.555007 3.164029 -15.049661 -10.519369 -2.958967 -26.864424 -5.228762 22.518034 -4.514955 21.316940 -18.594658 6.795071 21.982565 
18.820017 42.539997 22.990032 -10.605500 -7.841800 -86.993500 3.994140 -11.757800 6.611330 0.000000 0.000000 0.000000 0.000000 0.000000 0.000000 1.894530 -1.210940 0.419922 0.000000 0.000000 0.000000 0.000000 0.000000 0.000000 0.000000 0.000000 0.000000 -66.383698 30.387600 51.031601 -59.793301 36.249199 4.611810 -8.954590 -8.266380 -21.930901 0.000000 0.000000 0.000000 78.966003 -12.376000 52.469200 17.991699 -12.310600 -1.170330 -4.145330 2.095390 -29.334200 1.460457 -2.552027 -3.227138 4.770741 -0.801089 -6.155326 2.820566 -11.096816 -9.501012 -5.351345 -28.379528 -9.209093 24.574934 -3.293072 16.766659 -15.502736 6.824306 19.112822 
18.829958 41.929996 23.219990 -12.812500 -2.050780 -92.529297 1.093750 -11.044900 6.318360 0.000000 0.000000 0.000000 0.000000 0.000000 0.000000 -3.583980 1.240230 4.677950 0.000000 0.000000 0.000000 0.000000 0.000000 0.000000 0.000000 0.000000 0.000000 -69.994904 20.908800 45.942402 -29.531300 22.688700 -9.140390 -11.487700 -8.271940 -20.600500 0.000000 0.000000 0.000000 70.540497 -2.888860 50.845901 12.378300 -5.474740 -0.522128 5.804240 1.587700 -16.358500 -7.552629 -6.527560 -5.752890 12.515664 -5.399146 -0.772651 -2.268882 1.418836 -4.512991 -20.194870 -37.429035 -15.440536 33.819851 2.620682 -0.254926 -7.115491 2.497998 11.912856 
